<?xml version="1.0" encoding="utf-8"?>
<!-- Generator: Adobe Illustrator 23.0.3, SVG Export Plug-In . SVG Version: 6.00 Build 0)  -->
<svg version="1.1" id="Layer_1" xmlns="http://www.w3.org/2000/svg" xmlns:xlink="http://www.w3.org/1999/xlink" x="0px" y="0px"
	 viewBox="0 0 1200 1200" style="enable-background:new 0 0 1200 1200;" xml:space="preserve">
<style type="text/css">
	.st0{fill:#FFFFFF;}
</style>
<circle class="st0" cx="600" cy="600" r="600"/>
<g>
	<g>
		<path d="M1014.4,185.6C903.7,75,756.5,14,600,14S296.3,75,185.6,185.6C74.9,296.3,14,443.5,14,600c0,156.5,60.9,303.7,171.6,414.4
			S443.5,1186,600,1186s303.7-60.9,414.4-171.6S1186,756.5,1186,600C1186,443.5,1125.1,296.3,1014.4,185.6z M1163.7,600
			c0,310.8-252.8,563.7-563.7,563.7S36.3,910.8,36.3,600S289.2,36.3,600,36.3S1163.7,289.2,1163.7,600z"/>
		<path d="M304.7,597.3c1-1.8,2-3.7,3-5.6c2.3,4,4.9,7.9,7.8,11.7c11.6,15.3,27,24.7,46.9,28.9l0,0c2.9,0.6,6,1.1,9.1,1.5
			c26.6,3.3,52.2-2.2,76.1-16.2c1-0.6,1.9-1.1,2.8-1.7c26-14.8,46.1-40.8,53.1-72.6c1.2-5.5,1.9-10.9,2.2-16.3c0.2-3,0.3-6,0.2-9
			c-0.3-15.4-3-30.8-8.4-48.5c-4.1-13.4-12-24.2-19.6-34.7c-2.7-3.8-5.6-7.7-8.1-11.5c-0.2-0.3-0.5-0.7-0.8-1
			c-6.2-6.4-13-11.6-20.1-15.5c-6.5-4.7-6.2-2.3-9.4,1c-5.6,5.6-11,0-12.4-2s-2-1.9-3,0.2c-1.6,3.8-5.2,4.8-8.6,6
			c-5.6,1.6-9-4.1-9.8-5.7c-0.8-1.6-0.4-1.8-3.4-0.8c-5.6,2-9.2-0.8-11.2-5.4c-4-0.2-8.2,1.4-10.2,2.4c-0.4,0.1-0.8,0.2-1.2,0.4
			c-24.3,7.8-44.5,23.1-60,45.4c-0.5,0.8-1.2,1.5-1.8,2.3c-1.1,1.4-2.4,3-3.5,4.8c-5.1,9-9.3,17.9-12.6,27
			c-14.4-23.9-37.4-42.2-64.9-51.3c-32.1-10.6-86-14.2-160.8,28.9c-12,6.9-16.2,22.3-9.2,34.3c6.9,12,22.3,16.1,34.3,9.2
			c16.5-9.5,31.5-16.2,45-20.8c4.4-1.5,8.7-2.7,12.8-3.8c-3,1.6-7.9,5.1-11.4,7.6c7,30.8,15.4,84.1,6.5,122.7
			c-31,8.5-55.5,19.3-72.3,32c-7.3,4.6-12.1,12.9-11.7,22.2c0.3,9.4,5.9,17.8,14.4,21.8c1.1,0.5,2.6,1.1,4.5,1.6
			c5.4,1.4,13.8,1.6,22.6-5.2c9.8-7.6,41.4-26.3,122.4-36.8C263.8,641.4,289.5,624.1,304.7,597.3z M378.4,594.6
			c-1-0.2-1.6-1.2-1.4-2.2c0.2-1,1.2-1.6,2.2-1.4c1,0.2,1.6,1.2,1.4,2.2C380.4,594.2,379.4,594.8,378.4,594.6z M455.7,473.8
			c0.4-1.9,2.3-3.2,4.2-2.8c1.9,0.4,3.2,2.3,2.8,4.2c-0.4,1.9-2.3,3.2-4.2,2.8C456.5,477.7,455.3,475.8,455.7,473.8z M440.9,522.1
			c0.4-1.9,2.3-3.2,4.2-2.8c1.9,0.4,3.2,2.3,2.8,4.2c-0.4,1.9-2.3,3.2-4.2,2.8C441.7,525.9,440.5,524,440.9,522.1z M433.6,492.4
			c0.1-0.8,1.4-2.8,1.9-3.2c0.6-0.4,0.8-1.2,0.7-2c0.1-0.2,0.1-0.4,0.4-0.4c0.3-0.1,0.6,0,1,0.2c0.8,0.4,1.5,1.5,1.5,2.8
			c0.1,1.2-0.2,2.1-0.3,2.7c-0.1,0.6-0.1,1-0.2,1.3c-0.1,0.5-0.6,1.4-1.1,2.3c-0.5,0.9-1.1,1.8-1.8,1.9c-0.7,0.1-1.5-0.8-2-2
			C433.4,494.7,433.4,493.2,433.6,492.4z M427.9,428.4c0.3-1.5,1.8-2.5,3.3-2.1s2.5,1.8,2.1,3.3s-1.8,2.5-3.3,2.1
			C428.6,431.4,427.6,429.9,427.9,428.4z M423.2,462.6c0.3-1.2,1.5-2,2.7-1.7s2,1.5,1.7,2.7s-1.5,2-2.7,1.7S422.9,463.8,423.2,462.6
			z M421.8,547.2c0.8-0.6,1.6-1,2.4-1.4c0.2-0.1,0.4-0.2,0.6-0.3c0.2-0.1,0-0.1,0.1-0.1c0,0,0,0,0,0s0.1,0.1,0.5,0
			c0.3-0.1,0.4-0.4-0.1-1c-0.9-0.7-1.9-1.2-1.8-1.6c0.1-0.4,1.1-0.7,2.7-0.5c1,0.2,2.3,0.7,3.5,1.3c1.1,0.7,2.2,1.5,3.4,2.3
			c-1.7,1.2-3.1,2.2-4.3,2.6c-0.5,0.2-1.1,0.4-1.8,0.6c-0.3,0.1-0.8,0.2-1,0.2c-0.2,0-0.4,0.1-0.6,0.1c-0.8,0.1-1.6,0.2-2.3,0.3
			c-1.5,0.2-2.6,0.7-3.1,0.3C419.5,549.8,420.2,548.3,421.8,547.2z M428.8,578.3c6.9-11.1,16.7-18.8,26.9-26.3
			c11.6-8.5,17.5-19.1,15-33.8c-0.8-5-1.1-10.5,0-15.3c1-4,3.9-8,7-11c6.8-6.7,9-12.3,4.3-20.1c-1.4-2.3-2.4-5-3.2-7.6
			c-1.1-4.1-1.9-8.3-2.8-12.5c24.2,32,25,93.5,2,123c-15.6,20.1-35,35.6-59,44.1c-16.1,5.7-32.2,6.7-38.9,4.3c1.9-0.7,3-1.2,4.2-1.4
			c8.5-1.4,16.2-4.7,21.5-11.4C414,599.9,421.9,589.4,428.8,578.3z M396.4,567.4c0.4-2.1,2.5-3.4,4.5-3c2.1,0.4,3.4,2.5,3,4.5
			c-0.4,2.1-2.5,3.4-4.5,3C397.3,571.5,396,569.5,396.4,567.4z M394.8,465.6c0.3-0.6,0.6-1.1,1-1.5c0.1-0.1,0.2-0.2,0.3-0.3
			c0,0,0-0.1,0-0.1c0,0,0,0,0,0c0,0,0.2,0.1,0.5,0c0.1-0.1,0.3-0.3,0.1-0.9c-0.2-0.6-0.3-1.2-0.1-1.4s0.8-0.3,1.4-0.1
			c0.6,0.2,2.3,1.1,2.7,2.1c0.6,1.5-0.4,2.8-1.1,3.2c-0.2,0.2-0.5,0.3-0.9,0.5c-0.1,0.1-0.3,0.1-0.5,0.2l-0.2,0.1
			c-0.3,0.1-0.7,0.2-1,0.3c-0.6,0-1.2,0.4-1.8,0.5c-0.3,0-0.6-0.2-0.8-0.7C394.5,466.9,394.6,466.2,394.8,465.6z M383.9,431.4
			c0.3-1.5,1.8-2.4,3.2-2.1c1.5,0.3,2.4,1.8,2.1,3.2c-0.3,1.5-1.8,2.4-3.2,2.1C384.5,434.3,383.5,432.9,383.9,431.4z M377.8,510
			c1.2-10,8.7-15.5,16.1-20.4c3.8-2.5,9-3.1,13.4-4.5c4.4,9.5,2.8,14.9-5,19.9c-5.1,3.3-9.1,7.6-10.1,14.1c-0.3,2-2,3.8-3.7,6.9
			c2.8,8,0.6,11.1-13.9,14.9C375.8,530.2,376.6,520,377.8,510z M343.9,587.6c-0.3,1.3-1.5,2.1-2.8,1.8c-1.3-0.3-2.1-1.5-1.8-2.8
			c0.3-1.3,1.5-2.1,2.8-1.8C343.3,585.1,344.1,586.3,343.9,587.6z M363,610c-0.3,1.4-1.7,2.3-3.1,2c-1.4-0.3-2.4-1.7-2-3.1
			c0.3-1.4,1.7-2.3,3.1-2C362.3,607.2,363.3,608.6,363,610z M367.1,569.5c0.1-0.1,0.1-0.3,0.3-0.3c0.2,0,0.5,0,0.9,0.1
			c0.6,0.3,1.2,1.2,1.3,2.2c0,1-0.2,1.7-0.2,2.2c-0.1,0.5-0.1,0.8-0.2,1c-0.1,0.4-0.5,1.1-0.9,1.8c-0.4,0.7-0.9,1.4-1.5,1.5
			c-0.6,0.1-1.2-0.6-1.6-1.6c-0.4-1-0.4-2.2-0.2-2.8c0.1-0.6,1.1-2.3,1.5-2.6C367.1,570.8,367.2,570.1,367.1,569.5z M358.4,442.6
			c0.1-1,1.8-3.6,2.5-4.1c0.8-0.5,1-1.5,0.9-2.5c0.1-0.2,0.2-0.5,0.5-0.5c0.4-0.1,0.8-0.1,1.4,0.2c1,0.5,2,1.9,2,3.6
			c0.1,1.5-0.3,2.8-0.4,3.5c-0.1,0.7-0.2,1.3-0.3,1.6c-0.2,0.7-0.8,1.8-1.4,3c-0.7,1.1-1.4,2.3-2.3,2.4c-0.9,0.1-2-1-2.5-2.5
			C358.1,445.6,358.1,443.6,358.4,442.6z M353.6,492c0.3-1.4,1.7-2.4,3.1-2c1.4,0.3,2.4,1.7,2,3.1c-0.3,1.4-1.7,2.4-3.1,2
			C354.2,494.8,353.3,493.4,353.6,492z M351.4,556.7c0.2-1,1.2-1.6,2.2-1.4c1,0.2,1.6,1.2,1.4,2.2c-0.2,1-1.2,1.6-2.2,1.4
			C351.9,558.7,351.2,557.8,351.4,556.7z M351.1,523.3c0.9,2-0.5,3.8-1.5,4.4c-0.3,0.2-0.7,0.4-1.2,0.7c-0.2,0.1-0.4,0.2-0.6,0.3
			l-0.3,0.1c-0.5,0.1-0.9,0.3-1.3,0.3c-0.8,0.1-1.6,0.6-2.4,0.7c-0.4,0-0.8-0.3-1-0.9c-0.2-0.6-0.1-1.6,0.2-2.4
			c0.3-0.8,0.9-1.6,1.4-2.1c0.1-0.1,0.3-0.3,0.4-0.4c0.1-0.1,0-0.1,0-0.1c0,0,0,0,0,0c-0.1,0,0.3,0.2,0.7-0.1
			c0.2-0.2,0.4-0.5,0.1-1.3c-0.3-0.9-0.4-1.6-0.1-2c0.3-0.4,1.1-0.3,2-0.1C348.2,520.8,350.5,522,351.1,523.3z M334.7,468.3
			c1-0.8,2.2-1.4,3.2-1.8c0.3-0.1,0.5-0.2,0.8-0.3c0.3-0.1,0.1-0.1,0.1-0.1c0,0,0,0,0,0s0.1,0.1,0.7,0.1c0.4-0.1,0.5-0.6-0.2-1.3
			c-1.2-0.9-2.6-1.6-2.4-2.2c0.1-0.5,1.4-1,3.7-0.6c1.4,0.3,3.1,0.9,4.6,1.8c1.5,0.9,3,1.9,4.5,3.1c-2.3,1.5-4.1,2.9-5.8,3.5
			c-0.6,0.3-1.5,0.5-2.4,0.8c-0.4,0.1-1.1,0.3-1.3,0.3c-0.3,0-0.5,0.1-0.8,0.1c-1,0.1-2.1,0.3-3.1,0.5c-2,0.2-3.5,0.9-4.1,0.4
			C331.5,471.9,332.5,469.8,334.7,468.3z M320,555.2c0.2-0.2,0.4-0.4,0.1-1.2c-0.3-0.8-0.4-1.5-0.1-1.8c0.3-0.3,1-0.3,1.8-0.1
			c0.8,0.3,2.9,1.4,3.4,2.6c0.8,1.9-0.5,3.5-1.4,4.1c-0.3,0.2-0.7,0.4-1.1,0.6c-0.2,0.1-0.4,0.2-0.6,0.3l-0.3,0.1
			c-0.4,0.1-0.8,0.2-1.2,0.3c-0.8,0.1-1.5,0.5-2.2,0.6c-0.4,0-0.8-0.3-1-0.8c-0.2-0.6-0.1-1.4,0.2-2.2c0.3-0.8,0.8-1.5,1.3-2
			c0.1-0.1,0.2-0.2,0.4-0.3c0-0.1,0-0.1,0-0.1c0,0,0,0,0,0C319.3,555.2,319.6,555.4,320,555.2z M312.4,508.3
			c0.4-1.9,2.3-3.2,4.2-2.8c1.9,0.4,3.2,2.3,2.8,4.2c-0.4,1.9-2.3,3.2-4.2,2.8C313.2,512.1,312,510.2,312.4,508.3z M119.6,669.8
			c-10.9,4.5-15.6,12.8-25,12.3s-12.3-6.8-12.3-6.8s-1.1-2.2,3-0.3c4.1,1.8,7.8-0.3,20.5-3.5C118.7,668.2,124.9,667.4,119.6,669.8z
			 M227.8,595.1c-7.3,0.9-14.3,2-21.2,3.1c-6.9,1.1-13.6,2.3-20.1,3.6c0,0,0,0,0,0c6.5-3,13.8-6.6,20.4-8.3
			c2.4-23.5,0.9-46.4-3.7-78c-2.3-16.1-5.1-30.4-7.5-41c10.1,0.3,18.6,2,25.4,4.3c25.8,8.5,37,26.6,41.4,36.7c0,0.1,0.1,0.2,0.1,0.3
			c8.3,18.5,7.7,40.2-1.8,56.8c-4.2,7.5-14.1,20.3-32.9,22.5C228,595,227.9,595.1,227.8,595.1z"/>
		<path d="M888.1,410.7c-26.7,1.6-30.7,4.6-34.4,7.4c-6.1,4.6-9.6,11.6-9.9,18.9c-0.8,8.7-0.2,19.5,0.5,33
			c1.6,30.1,4.3,80.4-14.2,98.9c-2.2,2.3-9.1,9.1-28,8.1c-0.3,0-0.7,0-1,0c-13.3-0.2-22.3-4.3-29.2-13.4
			c-21.7-28.6-14.9-94.5-10.9-110.9c2.2-5.8,2.2-12.4-0.4-18.5c-5.4-12.8-20.1-18.8-32.9-13.4c-13.2,5.6-15.3,17.8-17,27.6
			c-0.9,5.1-2.1,13.5-3,24.2c-1.5,17.8-2.3,44.4,2.8,70.1c10.5,53.8,42.3,83.8,89.5,84.5c8.4,0.4,16.3,0,23.7-1.4
			c16.5-2.9,30.6-10.1,41.9-21.4c34.3-34.3,31-96.1,28.8-137c0-0.6-0.1-1.1-0.1-1.7l-15-4.2c0,0,22.2-2.6,66.5,1.8
			c4.7,0.5,9.3,1.5,13.9,2.3c-3.2,9.3-8.2,24-13.5,41.1c-14.9,48.2-23,84.7-24,108.5c-0.6,13.8,10.1,25.6,24,26.2
			c1.9,0.1,3.7,0,5.5-0.4c11.3-2,20.2-11.7,20.7-23.6c1.5-34.7,24-104.9,35.9-138.6c30.7,11,60.1,26.8,87.9,47.3
			c11.1,8.3,26.9,5.9,35.1-5.2c8.3-11.1,5.9-26.9-5.2-35.1c-68-50.4-134.9-67.4-179-72.9C921.8,409.6,901,409.9,888.1,410.7z
			 M969,595c-3.7,15.3,0.2,22.3-8.8,32.9s-20.2,4.4-20.2,4.4c11.1-0.4,14.8-11.1,18.4-20.8C962,601.8,970.6,586,969,595z"/>
		<path d="M515.1,392.3c-10.4,5.3-15.8,17.1-12.9,28.5c0.3,1.3,0.7,2.5,1.4,4.6c20,61.8,23.1,120.2,8.7,164.6
			c-4.3,13.2,2.9,27.3,16.1,31.6c13.2,4.3,27.3-2.9,31.6-16.1c8.3-25.7,12-54.9,11.2-86l-4.9-13.6c0,0,49.6,72.4,69,105.3
			c4.8,8,13.5,12.7,22.5,12.3c1.9-0.1,3.8-0.3,5.6-0.8c10.9-2.9,18.5-12.7,18.6-24c0.9-93.5,11.2-163.9,12.8-171.7
			c3.1-13.4-5.2-26.8-18.6-30c-13.5-3.3-27,5.1-30.3,18.5c-1,4.4-6.8,40.6-10.7,95.7l4.3,12.2c0,0-61.9-86.9-93.9-124.8
			C538.3,389.5,525.5,386.9,515.1,392.3z M519.5,405.8c-2.9,7.4-11.5,9-11.5,9s-0.9-17.5,17.9-18.7
			C544.7,395,522.4,398.4,519.5,405.8z M641.9,597.5c15.2,23.5,42.1,6.6,25.2,15.6c-17,9-27.2-8.2-33-16.6s-28.3-45.1-28.3-45.1
			C611.5,550.4,626.7,573.9,641.9,597.5z"/>
		<path d="M225.2,678.3c-0.1-2.6-2.4-4.6-4.9-4.5c-59.1,3-100.7,30.3-102.4,31.5c-2.2,1.4-2.7,4.4-1.3,6.5c0.9,1.4,2.4,2.1,3.9,2.1
			c0.9,0,1.8-0.3,2.6-0.8c0.4-0.3,41.3-27.1,97.7-30C223.3,683.2,225.3,680.9,225.2,678.3z"/>
		<path d="M261.3,667.8c-2.5,2.1-10.9,3.6-15.8,3.9c-2.6,0.2-4.6,2.4-4.4,5c0.1,2.5,2.2,4.4,4.7,4.4c0.1,0,0.2,0,0.3,0
			c2.6-0.2,15.6-1.2,21.3-6.1c2-1.7,2.2-4.7,0.5-6.6C266.3,666.3,263.3,666.1,261.3,667.8z"/>
		<path d="M421.4,663.3c0.5,0,0.9-0.1,1.4-0.2c3.3-1,6.5-2.2,9.5-3.6c2.4-1.1,3.4-3.9,2.3-6.2c-1.1-2.4-3.9-3.4-6.2-2.3
			c-2.6,1.2-5.5,2.3-8.4,3.2c-2.5,0.8-3.9,3.4-3.1,5.9C417.5,662,419.4,663.3,421.4,663.3z"/>
		<path d="M391.1,667.5c2.9,0,5.8-0.1,8.8-0.3c2.6-0.2,4.5-2.4,4.4-5s-2.4-4.5-5-4.4c-24,1.7-45.6-4.8-45.9-4.8
			c-2.5-0.8-5.1,0.7-5.9,3.2c-0.8,2.5,0.6,5.1,3.1,5.9C351.6,662.2,369.2,667.5,391.1,667.5z"/>
		<path d="M876.8,638.3c2-1.6,3.9-3.3,5.7-5c1.9-1.8,1.9-4.8,0.1-6.7c-1.8-1.9-4.8-1.9-6.7-0.1c-1.6,1.6-3.3,3.1-5.1,4.5
			c-2,1.6-2.3,4.6-0.7,6.6c0.9,1.2,2.3,1.8,3.7,1.8C874.9,639.3,876,639,876.8,638.3z"/>
		<path d="M860.3,648.8c2.3-1.2,3.3-4,2.1-6.3c-1.2-2.3-4-3.3-6.3-2.1c-37.8,18.7-84.8,7.2-85.2,7c-2.5-0.6-5.1,0.9-5.7,3.4
			c-0.6,2.5,0.9,5.1,3.4,5.7c1.1,0.3,16.2,4,36.3,4C821.5,660.6,841.7,658,860.3,648.8z"/>
		<path d="M883.3,387.5c2.2,3.2,6.6,4,9.8,1.7c3.2-2.2,4-6.6,1.7-9.8c-70-99.6-184.3-159.1-305.9-159.1
			c-137.1,0-262.9,74.9-328.4,195.5c-1.9,3.4-0.6,7.7,2.8,9.6c1.1,0.6,2.2,0.9,3.4,0.9c2.5,0,4.9-1.3,6.2-3.7
			c63-116,184.1-188.1,316-188.1C706,234.4,816,291.6,883.3,387.5z"/>
		<path d="M381.2,990.6c6.2-9.5,8.7-18.4,7.3-26.7c-1.5-8.5-6.8-15.8-15.9-21.8l-8.9-5.7c-9.1-5.6-15.2-9.4-18.5-11.6
			c-4.8-3.1-9.4-6.4-13.9-9.9c-1.1-1.2-2.4-1.4-3.9-0.7c-1.3,0.7-2.5,1.8-3.6,3.5c-1.2,1.8-1.8,3.4-1.9,4.8c-0.2,1.8,0.5,3,1.9,3.7
			l2.2,1.3c2.3,1.5,3.7,2.6,4.3,3.2c1,1,1.1,2.1,0.3,3.2l-45.7,69.7c-1,1.5-2.1,2-3.5,1.5c-0.9-0.2-2.4-1.2-4.5-2.9l-2-1.5
			c-1.1-1.2-2.4-1.4-3.9-0.7c-1.3,0.7-2.5,1.8-3.6,3.5c-1.2,1.8-1.8,3.4-1.9,5c-0.1,1.7,0.6,2.9,2,3.6c6.2,3.7,12,7.3,17.4,10.9
			c5.5,3.6,11.3,7.6,17.4,12c1.6,1.3,3.4,1.7,5.3,1.2c1.6-0.5,2.9-1.6,4-3.2c1.1-1.7,1.6-3.4,1.5-5.1c-0.3-1.9-1.3-3.3-3.3-4.2
			l-2.5-1.4c-4.3-2.5-7.1-4.2-8.4-5.3c-2.2-2-2.9-3.7-1.9-5.2l14-21.2l20.8,13.7c9.3,6.1,18.1,8.1,26.4,5.8
			C366.6,1007.7,374.2,1001.3,381.2,990.6z M351.9,995.7c-4.3,0.7-9-0.6-14-3.9l-19.3-12.7l25.8-39.3l19.3,12.7
			c4.9,3.2,8,6.9,9.4,11c1.7,5.5,0.2,11.8-4.4,18.8C363.3,990.3,357.7,994.8,351.9,995.7z"/>
		<path d="M467.2,1094.1c-3.6-1-6-2.1-7-3.1c-0.9-1-1.3-2.9-1.2-5.8l3-90.2c0.2-3.9-0.4-7.2-2-9.7c-1.3-2-3-3.4-4.9-4l-9.5-3.1
			c-3.9-1.2-6.9-2.2-9-3c-3.4-1.2-6.5-2.4-9.4-3.6c-1.3-0.7-2.6-0.5-3.9,0.7c-1.2,0.9-2.1,2.3-2.8,4.2c-0.6,1.8-0.8,3.5-0.4,5
			s1.2,2.5,2.7,2.9c2.4,0.8,4.9,1.7,7.7,2.5c2.7,0.8,4.3,1.3,4.8,1.5l1.3,0.6c0.8,0.5,1.1,1.2,0.8,2c-0.2,0.5-0.9,1.7-2.3,3.7
			l-48.1,65.5c-1.6,2.1-3.4,3.3-5.4,3.5c-1.7,0.2-4-0.4-6.8-1.7c-1-0.6-2.1-0.3-3.3,0.9c-1,1-1.8,2.4-2.5,4.3
			c-0.6,1.9-0.9,3.5-0.7,4.9c0.2,1.6,0.9,2.6,2,2.9c6.2,1.6,11.7,3.2,16.4,4.8c4.6,1.6,9.4,3.5,14.4,5.8c1.4,0.6,2.7,0.3,4.1-0.8
			c1.1-0.9,2-2.4,2.6-4.3c0.6-1.9,0.8-3.6,0.6-5c-0.4-1.7-1.4-2.7-2.8-3c-2.3-0.5-3.9-1.3-4.8-2.5c-1.3-1.4-1.2-3.1,0.3-5.1l12-16.4
			l32.7,11.3l-0.7,20.3c-0.1,2.4-1,3.8-2.9,4.2c-1.7,0.3-4.1-0.3-7.4-1.7c-1.5-0.8-3-0.6-4.4,0.5c-1.2,0.9-2.1,2.3-2.8,4.2
			s-0.8,3.6-0.4,5c0.4,1.7,1.4,2.8,3.1,3.2c5.7,1.3,11.1,2.8,16.3,4.6c5.3,1.8,10.7,4,16.2,6.6c1.2,0.5,2.4,0.2,3.6-0.9
			c1.1-0.9,2-2.4,2.6-4.3c0.6-1.9,0.8-3.6,0.6-5C469.3,1095.2,468.5,1094.3,467.2,1094.1z M446,1045.8l-24.3-8.4l25.8-35L446,1045.8
			z"/>
		<path d="M586.6,1002.8c-2.1-0.6-4-0.7-5.8-0.4c-1.9,0.3-3,1.2-3.3,2.6l-0.4,0.8c-0.3,1-0.7,1.5-1.1,1.5c-0.6,0-2-0.7-3.9-2.1
			c-1.7-1.2-4.5-2.4-8.4-3.5c-4-1.1-7.8-1.8-11.2-2.1c-12.3-1.1-22.1,1.1-29.5,6.7c-7.2,5.4-11.2,13.2-12.1,23.5
			c-1,11.3,2.1,20.1,9.3,26.2c4.3,3.6,12,7.1,23.1,10.7l3.4,1.1c8.2,2.8,13.7,5.4,16.5,7.8c3.4,3,4.9,7,4.4,12.1
			c-0.7,7.1-3.1,12.3-7.5,15.6c-4.3,3.2-10.2,4.4-17.8,3.8c-8.7-0.8-15-2.9-18.9-6.3c-4.8-4-6.5-10-5-17.9c0.3-2.1-0.3-3.8-1.9-5.2
			c-1.5-1.2-3.3-1.8-5.5-1.9c-2.2-0.2-4,0.3-5.4,1.4c-1.6,1.3-2.2,3.2-1.8,5.7c0.7,4.6,1,9.4,0.7,14.5c-0.3,5.5-1.1,9.9-2.3,13.4
			c-0.7,1.5-0.5,3,0.5,4.3c1,1.3,2.5,2.2,4.3,2.8c2,0.6,3.7,0.7,5.2,0.2c1.7-0.5,2.8-1.5,3.2-3.2c0.4-1.8,1.2-2.5,2.4-2.2
			c0.8,0.2,2.7,1.3,5.6,3.2c2,1.2,4.5,2.3,7.5,3.1c2.7,0.8,6,1.3,10,1.7c12.3,1.1,22.1-1,29.4-6.5c7.1-5.2,11.2-12.8,12.1-22.8
			c0.6-6.2,0.1-11.4-1.4-15.7c-1.3-3.9-3.5-7.2-6.5-9.8c-2.5-2.2-5.8-4.2-9.9-6c-2.3-0.9-6.2-2.3-11.5-3.9l-5.5-1.8
			c-7.7-2.6-13-5.2-15.9-7.6c-4.5-4-6.4-9.4-5.8-16.2c0.5-5.9,2.7-10.3,6.6-13.2c4.5-3.4,11-4.7,19.5-3.9c6.8,0.6,12,2.7,15.4,6.3
			c4,4.2,5.3,9.9,4,17.3c-0.4,2.2,0.1,4,1.6,5.5c1.4,1.3,3.1,2,5.3,2.2c2.1,0.2,3.9-0.2,5.3-1.3c1.6-1.2,2.3-3,2.2-5.2
			c-0.3-3.8,0-8.4,1-13.9c1.1-5.9,2.5-10.4,4.4-13.4c1.1-1.9,1.1-3.6,0-5.1C590.3,1004.6,588.7,1003.6,586.6,1002.8z"/>
		<path d="M692.2,1020.8c-1.1-6.5-2.2-13.1-3.1-19.8c-0.3-3.3-1-5.2-2.4-5.9c-1-0.6-3.1-0.6-6,0.1c-11.2,1.9-23,3.7-35.4,5.5
			c-12.4,1.8-22.8,3-31.2,3.9c-3.6,0.1-5.8,0.8-6.7,2.1c-0.7,1-0.8,2.9-0.3,5.9c0.6,4.1,1.2,9.5,1.8,16.2c0.9,9.1,1.4,17.1,1.6,24
			c-0.1,2.3,0.7,3.9,2.4,4.9c1.5,1.1,3.3,1.4,5.4,1.2c2.2-0.3,3.9-1.2,5-2.6c1.3-1.5,1.6-3.3,1-5.4l-1-5.1c-0.6-3.3-1-6-1.3-7.9
			c-0.5-3.2-0.7-6.4-0.9-9.6c-0.2-4.6,0.3-7.7,1.7-9.2c1.3-1.3,4.2-2.3,8.7-3c3.8-0.5,6.5-0.5,8,0c1.5,0.6,2.4,2.2,2.7,4.6
			l11.2,79.2c0.3,2.2-1.1,3.6-4.2,4.1c-2.1,0.4-5.2,0.5-9.4,0.2c-1.9-0.2-3.4,0.6-4.3,2.2c-0.8,1.4-1,3.1-0.7,5c0.3,2,1,3.5,2.1,4.7
			c1.4,1.4,3,1.9,4.8,1.6c5.4-1,12.3-2,20.6-3.2c8.4-1.2,15.3-2.1,20.7-2.6c2.2,0,3.9-0.8,5.1-2.5c1.1-1.5,1.4-3.3,1.2-5.4
			c-0.3-2.1-1.2-3.7-2.6-4.9c-1.6-1.3-3.4-1.5-5.5-0.7l-2.5,0.7c-4,1.3-6.5,1.9-7.7,1.9c-1.7-0.1-2.7-1.1-3-3.1l-11.2-79.2
			c-0.3-2.4,0.1-4.1,1.2-5.1c1.2-0.9,3.7-1.6,7.7-2.2c3.8-0.5,6.6-0.3,8.2,0.6c2.1,1.2,3.6,4,4.5,8.3c0.8,3.8,1.4,8,1.9,12.5
			c0.4,3.8,0.7,7.2,1,10.2c-0.1,2.3,0.8,3.9,2.6,4.9c1.6,1,3.6,1.4,5.9,1.1c2.3-0.3,4.1-1.2,5.5-2.7c1.5-1.5,1.9-3.3,1.3-5.4
			C695,1035.2,693.6,1028.6,692.2,1020.8z"/>
		<path d="M832.7,1049.8c-1.4-1-2.8-1-4.3,0c-3,1.8-5,2.8-6.1,3c-1.4,0.4-2.6-0.1-3.6-1.3c-4-6-7.8-10.7-11.4-14.1
			c-6.2-6-12.4-9-18.4-9.1c5.1-4.8,8.2-10,9.4-15.7c1.4-6.5,0.4-14-3.2-22.6c-4-9.6-9.1-16.3-15.5-19.9c-7.6-4.4-16.8-4.3-27.6,0.1
			c-11.6,5.2-20.8,9.2-27.5,12c-6.7,2.8-13.1,5.2-19.2,7.2c-1.3,0.3-2.1,1.3-2.3,3c-0.1,1.4,0.2,3,1,4.9c0.7,1.8,1.6,3.1,2.7,4
			c1.3,1,2.6,1.3,3.8,0.6c3-1.5,5.2-2.3,6.6-2.6c2.1-0.4,3.5,0.1,4.1,1.6l32,77.8c0.4,1.1-0.3,2.1-2.1,3.1c-1.2,0.6-3.5,1.4-6.7,2.4
			c-1.4,0.1-2.3,1-2.5,2.7c-0.1,1.4,0.3,3.1,1,5c0.8,1.9,1.7,3.4,2.8,4.3c1.4,1.1,2.6,1.3,3.8,0.5c5-2.5,10.1-4.8,15.4-7
			c5.3-2.2,10.9-4.3,16.7-6.2c1.7-0.3,2.7-1.4,2.9-3.3c0.4-1.5,0.2-3.3-0.6-5.2s-1.9-3.3-3.2-4.1c-1.4-1-2.8-1-4.3,0
			c-3,1.6-5.1,2.6-6.5,3c-1.8,0.5-3,0.3-3.4-0.8l-11.5-28l19.3-7.9c6.8,0.2,13.4,3.1,19.8,8.7c5.5,4.8,10.4,11.1,14.8,19l0.4,0.9
			c1.1,2.3,1.9,3.7,2.5,4.1c1,0.8,2.3,0.7,3.9-0.4c2.3-1.3,5-2.6,8-3.8c2.9-1.2,6.2-2.4,9.8-3.5c1.6-0.4,2.6-1.5,2.9-3.3
			c0.4-1.6,0.2-3.4-0.6-5.2C835.1,1052,834,1050.6,832.7,1049.8z M783.3,1012.6c-1.4,4.9-4.9,8.5-10.6,10.8l-22.8,9.4l-16.5-40.1
			l22.8-9.4c5.6-2.3,10.6-2.4,14.9-0.3c4.1,2,7.5,6.3,10.2,12.8C784,1002.4,784.6,1008,783.3,1012.6z"/>
		<path d="M917.6,990.8c-1.8-0.4-3.3,0.1-4.7,1.6l-1,0.8c-2.9,2.8-4.9,4.7-6.1,5.5c-2,1.4-3.4,1.5-4.2,0.4L883,974.4l-9.8-59.5
			c-0.3-1.6-0.2-2.9,0.3-3.8c0.5-1.1,1.6-2.3,3.5-3.4c1.6-0.8,2.5-2.2,2.5-4c0-1.6-0.6-3.2-1.9-4.9s-2.7-2.8-4.2-3.2
			c-1.9-0.6-3.4-0.2-4.6,1.3c-3.7,3.5-7.6,6.7-11.5,9.6c-3.5,2.5-7.5,5.1-11.8,7.9c-1.3,0.6-1.8,1.7-1.6,3.4c0.3,1.4,1,2.9,2.3,4.6
			c1.2,1.6,2.4,2.7,3.7,3.3c1.6,0.7,2.8,0.5,3.8-0.5c1.8-1.5,3.1-2.3,4-2.6c1.2-0.3,2.1,0.4,2.5,2l6.2,37c0.3,1.6,0.2,2.6-0.2,2.9
			c-0.3,0.3-1.2,0-2.6-0.8l-33.7-16.3c-1.5-0.7-2.1-1.4-2-2.1c0.1-0.4,0.6-1.1,1.6-2l0.9-0.7c1.6-0.8,2.4-2.1,2.5-3.8
			c-0.1-1.7-0.7-3.3-1.9-4.9c-1.3-1.7-2.7-2.8-4.3-3.3c-1.7-0.5-3.2-0.2-4.5,1.2c-5.3,4.5-9.4,7.9-12.2,10.1c-3.5,2.7-7.1,5-10.7,7
			c-1.3,0.6-1.8,1.7-1.5,3.3c0.2,1.5,0.8,3,2,4.6c1.2,1.6,2.5,2.7,3.9,3.4c1.5,0.7,2.7,0.6,3.7-0.4c1.3-1.5,2.5-2.5,3.7-3
			c1.7-0.6,3.5-0.5,5.6,0.3l54.4,26.1l18.5,24.6c0.8,1.1-0.3,2.8-3.2,5.2c-2.4,1.8-4.7,3.2-6.9,4.2c-1.7,0.9-2.6,2.2-2.7,4
			c0.1,1.7,0.7,3.3,1.9,4.9c1.2,1.6,2.6,2.6,4.1,3.1c1.9,0.6,3.5,0.2,4.9-1.1c5-4.5,10.8-9.2,17.3-14c5.2-3.9,10.5-7.5,15.9-10.9
			c1.7-1,2.6-2.5,2.6-4.5c0.2-1.7-0.3-3.4-1.5-5C920.8,992.2,919.3,991.2,917.6,990.8z"/>
		<path d="M168.7,286.5c1.4,1.2,3,1.9,4.6,2.2s2.8-0.3,3.7-1.5c1.6-1.9,3.3-4,5-6.3c1.7-2.3,2.8-3.6,3.1-4l1-1
			c0.8-0.6,1.5-0.6,2.1-0.1c0.4,0.3,1.3,1.5,2.7,3.5l44.1,68.2c1.4,2.3,1.8,4.4,1.3,6.3c-0.4,1.7-1.8,3.6-4,5.7
			c-0.9,0.8-1,1.9-0.4,3.4c0.6,1.3,1.6,2.6,3.1,3.9c1.5,1.3,3,2.1,4.4,2.4c1.6,0.4,2.7,0.1,3.4-0.9c3.7-5.3,7.2-9.8,10.3-13.6
			c3.1-3.7,6.6-7.5,10.5-11.4c1-1.1,1.3-2.4,0.8-4.1c-0.5-1.4-1.5-2.7-3-4c-1.5-1.3-3-2-4.5-2.3c-1.7-0.2-3,0.3-3.8,1.6
			c-1.2,2-2.6,3.2-4.1,3.6c-1.8,0.7-3.4,0-4.7-2l-11-17.1l22.2-26.5l18.7,7.9c2.3,0.9,3.2,2.3,2.8,4.2c-0.3,1.7-1.7,3.8-4.3,6.3
			c-1.2,1.2-1.6,2.6-1.1,4.2c0.4,1.5,1.4,2.8,2.9,4.1s3,2,4.6,2.2c1.7,0.2,3.1-0.4,4.1-1.7c3.2-4.8,6.6-9.4,10.1-13.6
			c3.5-4.2,7.4-8.4,11.7-12.5c0.6-0.1,1.1-0.4,1.5-0.9c4.2-3.7,8.5-7.3,13.1-10.7c4.6-3.5,9.5-6.9,14.6-10.3c1.5-0.8,2.2-2.1,2-3.9
			c0-1.6-0.6-3.2-1.9-4.9c-1.3-1.7-2.7-2.7-4.2-3.2c-1.6-0.6-3-0.2-4.1,1.1c-2.5,2.3-4.3,3.8-5.5,4.5c-1.6,1-2.8,1-3.5,0.1
			l-18.3-24.2l16.6-12.6c6.6-1.6,13.7-0.4,21.4,3.4c6.5,3.2,12.9,8.1,19.2,14.6l0.6,0.8c1.6,1.9,2.8,3.1,3.5,3.3
			c1.2,0.5,2.4,0.1,3.7-1.4c1.9-1.8,4.2-3.7,6.8-5.7c2.5-1.9,5.4-3.9,8.6-5.9c1.5-0.9,2.1-2.1,2-3.9c-0.1-1.7-0.7-3.3-1.9-4.9
			c-1.3-1.7-2.7-2.7-4.2-3.2c-1.6-0.6-3-0.2-4.1,1.1c-2.5,2.5-4.2,4-5.1,4.5c-1.3,0.7-2.6,0.6-3.8-0.3c-5.4-4.8-10.2-8.4-14.6-10.7
			c-7.5-4.2-14.3-5.6-20.2-4.1c3.7-5.9,5.4-11.8,5.1-17.5c-0.3-6.6-3.2-13.7-8.8-21c-6.3-8.3-13-13.4-20.1-15.3
			c-8.5-2.3-17.4,0.1-26.7,7.1c-9.9,8-17.7,14.2-23.5,18.6s-11.4,8.4-16.7,11.9c-1.2,0.7-1.7,1.8-1.5,3.5c0.3,1.4,1,2.9,2.2,4.5
			c1.1,1.5,2.4,2.6,3.6,3.2c1.6,0.7,2.9,0.5,3.9-0.4c2.6-2.2,4.5-3.6,5.8-4.2c1.9-0.9,3.4-0.8,4.3,0.5l50.8,67.1
			c0.7,0.9,0.3,2.1-1.3,3.5c-1,0.9-3,2.3-5.9,4c-0.7,0.3-1.2,0.7-1.5,1.4c-1,0.1-1.7,0.5-2.1,1.3c-2.3,3-4,4.8-5.4,5.4
			c-1.2,0.5-3.2,0.2-5.8-0.9l-83.2-34.9c-3.6-1.6-6.8-2.2-9.8-1.6c-2.4,0.5-4.2,1.6-5.5,3.2l-6.3,7.7c-2.6,3.2-4.5,5.7-6,7.4
			c-2.3,2.7-4.5,5.3-6.7,7.5c-1.1,1-1.4,2.3-0.8,3.9C166.2,283.9,167.2,285.2,168.7,286.5z M264.8,196.1l19.6-14.9
			c4.9-3.7,9.6-5.1,14.3-4.1c4.5,0.9,8.9,4.2,13.2,9.8c4.3,5.6,6.3,10.9,6.2,15.7c-0.1,5.1-2.6,9.5-7.5,13.2L291,230.7L264.8,196.1z
			 M242.5,287.4L226,307.1l-23.5-36.6L242.5,287.4z"/>
		<path d="M341.9,153.6c3.4,8.5,6.2,16,8.4,22.5c0.5,2.2,1.8,3.5,3.7,4c1.8,0.6,3.6,0.4,5.5-0.4c2-0.9,3.4-2.2,4.1-3.9
			c0.8-1.8,0.6-3.6-0.6-5.5l-2.5-4.6c-1.5-3-2.7-5.4-3.5-7.3c-1.4-3-2.5-5.9-3.6-8.9c-1.5-4.4-1.9-7.5-1-9.3
			c0.9-1.7,3.4-3.4,7.5-5.3c3.5-1.6,6.1-2.4,7.6-2.3c1.6,0.2,2.9,1.4,3.9,3.6l33.3,72.8c0.9,2,0,3.7-2.9,5.1c-1.9,1-4.9,1.9-8.9,2.9
			c-1.9,0.4-3.1,1.5-3.5,3.3c-0.3,1.5-0.1,3.2,0.7,5c0.8,1.8,1.9,3.1,3.3,3.9c1.7,0.9,3.4,1,5.1,0.1c4.9-2.5,11.2-5.4,18.8-8.9
			c7.8-3.5,14.1-6.3,19.1-8.4c2.1-0.6,3.5-1.9,4.2-3.8c0.6-1.8,0.4-3.6-0.4-5.5s-2.2-3.2-3.9-3.9c-1.9-0.8-3.7-0.5-5.5,0.9l-2.2,1.3
			c-3.4,2.4-5.7,3.7-6.9,4c-1.7,0.4-2.9-0.3-3.7-2.1l-33.3-72.8c-1-2.2-1.1-3.9-0.3-5.2c0.8-1.2,3.1-2.6,6.7-4.3
			c3.5-1.6,6.2-2.2,8-1.8c2.3,0.6,4.6,2.8,6.7,6.7c1.8,3.4,3.6,7.3,5.4,11.4c1.5,3.5,2.8,6.7,3.8,9.5c0.5,2.2,1.8,3.5,3.9,3.9
			c1.9,0.5,3.9,0.3,6-0.6c2.1-1,3.6-2.3,4.5-4.1c1-1.9,0.9-3.7-0.3-5.6c-3-4.8-6.3-10.7-9.8-17.7c-3-5.9-5.8-12-8.6-18.1
			c-1.2-3.1-2.5-4.7-4-4.9c-1.2-0.3-3.1,0.3-5.8,1.8c-10.2,5-21,10.1-32.4,15.3c-11.4,5.2-21,9.4-28.8,12.6
			c-3.4,1.1-5.4,2.4-5.9,3.9c-0.4,1.1,0.1,3,1.4,5.8C337.3,142.3,339.4,147.3,341.9,153.6z"/>
		<path d="M434.8,102.1c1.6,1.1,3.4,1.2,5.5,0.4l2.6-0.8c3.3-1,5.7-1.5,7.1-1.5c2.5-0.3,4,0.2,4.3,1.7l20.9,81.3
			c0.5,1.7-1,3.1-4.3,4.2c-2.3,0.7-5.1,1.2-8.5,1.4c-2.2,0.3-3.8,1.2-4.6,3c-0.7,1.5-0.8,3.3-0.3,5.3c0.5,1.9,1.4,3.4,2.8,4.5
			c1.6,1.1,3.4,1.2,5.5,0.4c6.8-2.2,13.9-4.2,21.2-6.1c7.4-1.9,13.8-3.3,19-4.2c2.3-0.3,4-1.3,4.9-3.1c0.9-1.6,1.1-3.4,0.6-5.4
			c-0.5-2-1.6-3.5-3.1-4.4c-1.7-1.1-3.6-1.2-5.8-0.3c-3.3,1.5-6,2.5-8.1,2.9c-3,0.6-4.7,0-5.2-1.8l-20.9-81.3
			c-0.4-1.4,0.2-2.5,1.8-3.2c0.9-0.6,3.1-1.2,6.5-2l3.7-0.8c2.3-0.3,4-1.3,4.9-3.1c0.9-1.5,1.1-3.3,0.6-5.4
			c-0.5-1.9-1.5-3.4-3.1-4.4c-1.7-1.1-3.6-1.2-5.8-0.3c-5.8,1.9-12.5,3.9-20.2,5.8c-7.7,2-14.4,3.5-20,4.5c-2.2,0.2-3.8,1.2-4.6,3
			c-0.7,1.6-0.8,3.3-0.3,5.3C432.6,99.6,433.5,101.1,434.8,102.1z"/>
		<path d="M820,120.4c-0.3-1.7-1.1-2.6-2.5-2.8c-5.8-1.7-11.3-3.6-16.7-5.7c-5.5-2.1-9.6-3.9-12.2-5.3c-1.5-0.9-2.9-0.9-4.3,0.1
			c-1.2,0.9-2.2,2.3-2.9,4.1c-0.7,1.8-0.9,3.4-0.6,5c0.4,1.7,1.3,2.9,2.9,3.5c2.3,0.4,4.2,1.1,5.5,1.9c2,1.1,2.7,2.3,2.2,3.7
			L766,191.6l-5.2-68.3l-1.7-23c-0.1-2.1-0.3-3.5-0.6-4.3c-0.7-1.2-1.9-1.9-3.7-2.3c-2.8-0.7-5.9-1.7-9.3-3s-7.1-2.9-10.9-4.7
			c-1.1-0.6-2.3-0.4-3.5,0.7c-1,1-1.9,2.4-2.6,4.2c-0.7,1.8-1,3.4-0.8,4.9c0.2,1.5,0.9,2.5,2.1,2.8l1.2,0.3c3.2,1.1,5.1,1.9,5.8,2.5
			c1.2,0.8,1.5,1.9,0.9,3.4l-29.5,77.6c-0.5,1.3-1.3,1.9-2.4,1.8c-0.7,0-2.2-0.6-4.6-1.6l-3-1.1c-0.6-0.5-1.3-0.6-2-0.4
			c-0.5-0.6-1.2-1-2-0.9c-3.8-0.3-6.3-0.8-7.4-1.6c-1.1-0.8-1.8-2.6-2.3-5.4l-14.9-89c-0.5-3.9-1.8-6.9-3.9-9.1
			c-1.7-1.7-3.6-2.7-5.7-3l-9.9-1.2c-4.1-0.4-7.2-0.8-9.4-1.1c-3.5-0.5-6.9-1-10-1.7c-1.4-0.4-2.7,0.1-3.7,1.4
			c-1,1.1-1.6,2.7-1.9,4.7c-0.3,1.9-0.1,3.6,0.6,5c0.7,1.5,1.7,2.3,3.2,2.3c2.5,0.3,5.2,0.6,8,0.9s4.5,0.4,5,0.5l1.4,0.3
			c0.9,0.3,1.3,0.9,1.2,1.8c-0.1,0.5-0.6,1.9-1.5,4.1L609,163.1c-1.2,2.4-2.7,3.9-4.6,4.5c-1.1,0.4-2.6,0.4-4.3,0.2
			c-0.4,0.5-1,0.9-1.6,1.2c-0.1,1-0.4,1.9-1,2.6c0,0.1,0,0.3-0.1,0.4c0.6,1.4,0.5,3.1-0.1,4.5c0.1,0.5,0.2,0.9,0.2,1.4
			c0.2,0.3,0.4,0.6,0.5,0.9c0.1,0.1,0.2,0.1,0.3,0.2c0.8,0.2,1.4,0.7,1.9,1.2c0.9,0.2,1.6,0.6,2.1,1.1c3.7,0.3,7.2,0.6,10.3,1.1
			c4.8,0.6,9.9,1.6,15.2,2.8c1.5,0.3,2.7-0.2,3.9-1.6c0.9-1.1,1.5-2.7,1.8-4.7s0.1-3.6-0.4-5c-0.7-1.6-1.9-2.4-3.3-2.4
			c-2.3,0-4.1-0.5-5.2-1.5c-1.5-1.2-1.8-2.8-0.8-5l8.5-18.4l34.3,4.6l3.3,20c0.4,2.4-0.3,3.9-2.1,4.7c-1.6,0.6-4.1,0.6-7.6-0.2
			c-1.6-0.4-3,0-4.2,1.4c-1,1.1-1.6,2.7-1.9,4.7c-0.3,2-0.1,3.6,0.6,5c0.7,1.6,2,2.4,3.6,2.6c5.8,0.1,11.4,0.6,16.9,1.3
			c5.5,0.7,11.3,1.8,17.2,3.3c0,0,0,0,0.1,0c0.3,0.2,0.6,0.3,0.9,0.4c7,2.3,12.9,4.5,17.8,6.4c5.4,2.1,9.8,4,13.2,5.7
			c1.4,0.8,2.8,0.6,4.3-0.6c1.3-0.8,2.4-2.2,3.1-4.1c0.8-2,0.9-3.7,0.5-5.2c-0.3-1.8-1.3-2.9-2.9-3.1c-2.3-0.5-4.1-1.1-5.4-1.9
			c-2-1.1-2.8-2.4-2.2-3.9l24.9-65.3l4.9,66.2l2.2,25c0.2,2.4,1.1,4.6,2.6,6.4c1.5,1.7,3.2,2.8,5.2,3.2c2.2,0.4,4.2,0,6-1.2
			c2.2-1.4,3.9-3.7,5.1-6.8l32.3-85c0.5-1.2,1.2-1.7,2.3-1.6c0.7,0,1.9,0.4,3.8,1.1l1.6,0.8c1.2,0.6,2.5,0.3,3.8-0.7
			c1.2-0.9,2.2-2.3,2.9-4.1C820.1,123.6,820.3,121.9,820,120.4z M638.4,133.8l18.4-39.4l7.1,42.8L638.4,133.8z"/>
		<path id="XMLID_1_" d="M585.4,63c-2.1-0.3-4.1,0-5.8,0.6c-1.8,0.7-2.8,1.7-2.8,3.1l-0.3,0.8c-0.1,1.1-0.4,1.6-0.8,1.7
			c-0.6,0.2-2-0.3-4.2-1.4c-1.9-0.9-4.8-1.6-8.9-2c-4.2-0.4-8-0.5-11.4-0.2c-12.3,0.9-21.6,4.8-27.9,11.5c-6.2,6.5-8.8,14.9-8,25.2
			c0.9,11.3,5.4,19.4,13.6,24.3c4.9,2.8,13,5,24.6,6.7l3.5,0.5c8.5,1.4,14.4,3,17.6,5c3.9,2.3,6,6.1,6.4,11.2
			c0.5,7.1-1,12.7-4.7,16.7c-3.7,3.9-9.3,6.1-16.9,6.7c-8.7,0.7-15.3-0.4-19.7-3.1c-5.4-3.2-8.1-8.8-8-16.8c-0.1-2.1-1-3.7-2.8-4.9
			c-1.7-0.9-3.6-1.3-5.8-1c-2.2,0.2-3.9,0.9-5,2.3c-1.4,1.6-1.6,3.6-0.8,5.9c1.5,4.4,2.5,9.1,3.2,14.2c0.6,5.4,0.6,10,0,13.6
			c-0.4,1.6,0,3,1.3,4.2c1.2,1.1,2.8,1.7,4.8,2c2,0.3,3.8,0,5.2-0.7c1.6-0.8,2.5-2,2.6-3.7c0.1-1.8,0.8-2.6,2-2.5
			c0.8,0,2.9,0.8,6,2.2c2.2,0.9,4.8,1.5,7.9,1.8c2.8,0.3,6.1,0.3,10.1,0c12.3-0.9,21.6-4.7,27.9-11.3c6.2-6.3,8.8-14.5,8.1-24.5
			c-0.5-6.2-1.8-11.3-4-15.2c-2-3.6-4.7-6.5-8.1-8.6c-2.9-1.8-6.5-3.2-10.8-4.2c-2.5-0.5-6.5-1.2-12-1.9l-5.8-0.8
			c-8-1.3-13.7-2.9-17-4.9c-5.1-3.2-7.9-8.2-8.4-15c-0.5-5.9,1-10.6,4.3-14.1c3.9-4.1,10.1-6.5,18.6-7.1c6.8-0.5,12.2,0.7,16.3,3.7
			c4.6,3.4,6.9,8.9,6.8,16.4c0,2.2,0.8,3.9,2.5,5.2c1.6,1,3.4,1.5,5.6,1.3c2.1-0.2,3.8-0.9,5.1-2.1c1.4-1.5,1.8-3.3,1.3-5.5
			c-0.9-3.7-1.4-8.3-1.4-13.8c0.1-6,0.8-10.7,2.1-13.9c0.8-2.1,0.5-3.7-0.9-5C589.3,64.1,587.7,63.4,585.4,63z"/>
		<path d="M851,152c2.1,1.4,4.3,2.9,6.8,4.4c2.4,1.5,3.8,2.4,4.3,2.7l1.1,0.9c0.7,0.7,0.8,1.4,0.3,2.1c-0.3,0.4-1.3,1.4-3.2,3
			L797,216c-2.1,1.6-4.1,2.3-6.1,2c-1.7-0.3-3.8-1.4-6.1-3.4c-0.8-0.8-2-0.8-3.4,0c-1.2,0.7-2.4,1.9-3.5,3.5s-1.8,3.2-2,4.6
			c-0.2,1.6,0.2,2.7,1.2,3.3c5.6,3.1,10.5,6.1,14.6,8.9c4,2.7,8.1,5.8,12.4,9.3c1.2,0.9,2.5,1,4.2,0.3c1.3-0.6,2.5-1.8,3.7-3.4
			s1.7-3.2,1.8-4.7c0-1.8-0.6-2.9-2-3.6c-2.1-1-3.4-2.3-4-3.6c-0.9-1.7-0.3-3.3,1.6-4.9l15.8-12.8l28.7,19.3l-5.9,19.4
			c-0.7,2.3-2,3.4-3.9,3.3c-1.7-0.1-3.9-1.3-6.7-3.6c-1.3-1.1-2.7-1.3-4.3-0.6c-1.4,0.6-2.7,1.7-3.8,3.4c-1.1,1.7-1.7,3.2-1.7,4.8
			c0,1.8,0.7,3,2.1,3.9c5.2,2.7,10,5.6,14.5,8.6c4.4,3,8.8,6.3,13.3,10c0,1,0.5,1.8,1.3,2.4c7.2,7.1,15.3,15.2,24.1,24.4
			c8.9,9.3,16.5,17.3,22.6,24.2c2.7,3.4,4.8,5.4,6.4,5.9c1.6,0.4,3.4-0.4,5.5-2.5c2.4-3.1,6.7-7.2,12.7-12.5
			c4.2-3.6,9.6-8.1,16.3-13.5c1.5-1.2,2.1-2.7,1.8-4.5c-0.3-1.6-1.2-3.3-2.7-4.9c-1.6-1.7-3.3-2.7-5-3.1c-1.9-0.5-3.5,0-4.7,1.5
			c-5.8,5.8-9.9,9.9-12.4,12.1c-3.3,2.8-6.1,4.4-8.3,5c-2.3,0.5-4.7-0.1-7.1-1.7c-1.9-1.2-4.8-3.8-8.6-7.8l-3.7-3.9
			c-4-4.2-6.5-6.9-7.3-8.3c-1.2-2.1-1-3.9,0.5-5.4l59.3-57c0.8-0.7,2-0.4,3.7,0.9c1.1,0.8,3,2.6,5.6,5.4l1.9,2.2
			c1.2,1.4,2.8,2.1,4.7,1.9c1.6-0.1,3.2-0.9,4.6-2.3s2.3-2.9,2.4-4.5c0.3-1.9-0.4-3.4-1.9-4.5c-5.9-5.6-11.2-10.7-15.8-15.5
			c-4.7-4.9-8.3-8.9-10.8-12.1c-0.8-1.3-2-1.7-3.7-1.3c-1.5,0.3-3,1.1-4.4,2.5c-1.4,1.4-2.3,2.8-2.7,4.3c-0.5,1.6-0.2,2.9,0.9,3.9
			l1.5,1.4c1.8,1.9,3,3.3,3.6,4.2c0.9,1.4,1,2.5,0.3,3.2l-59.3,57c-1.7,1.7-3.6,1.9-5.7,0.7c-1.4-0.9-2.9-2.4-4.6-4.8
			c-0.3-0.5-0.7-0.8-1.2-1c0-1.4-0.5-2.3-1.5-2.8c-3.3-1.9-5.2-3.5-5.9-4.8c-0.6-1.2-0.5-3.1,0.3-5.9l26-86.4c1.2-3.7,1.4-7,0.6-9.9
			c-0.8-2.3-2-4-3.7-5.2l-8.3-5.4c-3.5-2.2-6.1-3.9-7.9-5.2c-3-2-5.7-4-8.2-5.9c-1.1-1-2.4-1.1-3.9-0.4c-1.4,0.6-2.7,1.7-3.8,3.4
			c-1.1,1.6-1.6,3.2-1.7,4.8C849.1,150.1,849.7,151.2,851,152z M870.3,175.6l-12.6,41.6l-21.3-14.4L870.3,175.6z"/>
		<circle cx="239.1" cy="910.5" r="15.4"/>
		<path d="M945.4,895c-8.5,0-15.4,6.9-15.4,15.4s6.9,15.4,15.4,15.4s15.4-6.9,15.4-15.4S953.9,895,945.4,895z"/>
		<path d="M714.4,776c4.9-12,9.8-23.6,14.5-35c2-3.4,4-6.7,6.1-9.9c2.1-3.3,4.1-6.4,6.1-9.6c2-3.1,3.8-6.3,5.5-9.5
			c1.7-3.2,3-6.4,4-9.8c0.7-2.6,0.9-5.2,0.5-7.9s-1.2-5.2-2.5-7.4s-3.1-4.1-5.3-5.6s-4.9-2.5-7.7-2.7c-3-0.2-6.2,0.8-9.1,2.8
			c-2.9,2-5.7,4.6-8.2,7.9s-5,7.1-7.3,11.4c-2.3,4.3-4.3,8.6-6.2,12.9c-1.8,4.3-3.4,8.4-4.7,12.3c-1.3,3.9-2.2,7.2-2.9,9.7
			c-0.6-1.7-1.7-3.3-3.3-4.8c-2.5-2.2-5.4-3.7-8.7-4.5c-3.2-0.8-6.5-1-9.8-0.6s-6.5,1.1-9.7,2.2c-3.2,1.2-6,2.5-8.5,4.1
			c-6.8,4.4-12.9,10-18.3,16.7c-5.4,6.7-10.1,13.7-14.2,21c-2,3.7-4.2,8.1-6.5,13.3c-1.4,3-2.7,6.3-3.8,9.6
			c-1.7,2.5-3.9,5.5-6.3,9.1c-3.3,4.8-6.8,9.6-10.5,14.3c-3.7,4.8-7.4,9.1-11.1,13c-3.7,3.9-7,6.7-9.9,8.2c-1.7,0.9-3.1,1-4.3,0.4
			s-1.8-2-1.6-4.2c0.2-3.5,0.9-7.3,2.3-11.4c1.3-4.1,3-8.2,5-12.4c2-4.2,4.1-8.3,6.2-12.4s4.2-8,6.1-11.6c1.7-3.1,3.3-6.3,5.1-9.6
			c1.7-3.2,3.4-6.5,5-9.8c1.6-3.3,3-6.7,4.1-10.1s1.8-7.1,2.2-10.7c0.3-3.2-0.4-6.2-2.2-8.8c-1.8-2.7-4.5-4.1-7.8-4.3
			c-3.7-0.2-7,0.4-9.9,1.9s-5.6,3.4-8,5.8c-2.4,2.4-4.7,5.2-6.7,8.2c-2,3-4,6-6,8.8c-4.7,6.9-9.1,13.5-13.3,19.8
			c-4.2,6.3-8.4,12.5-12.5,18.4c-4.2,5.9-8.5,11.7-12.8,17.3c-4.4,5.6-9.3,11-14.7,16.1c-1.3,1.4-2.7,2.5-4.2,3.2
			c-1.5,0.7-2.7,0.9-3.8,0.6c-1-0.3-1.7-1.1-2-2.4c-0.3-1.3,0-3.4,0.9-6.3c1.5-4.8,3.7-10,6.5-15.6c2.8-5.6,5.8-11.1,9-16.5
			c3.2-5.4,6.5-10.5,9.8-15.3s6.5-8.8,9.2-12c3.3-3.7,5-7.6,5.2-11.7c0.1-4.1-0.8-7.6-2.8-10.4s-4.6-4.7-8-5.5
			c-3.4-0.8-6.9,0-10.6,2.4c-4.1,2.8-8.1,6.5-12,11.2s-7.6,9.8-11,15.2c-3.5,5.5-6.7,10.9-9.6,16.4c-2.9,5.5-5.3,10.6-7.3,15
			c-0.8,1.7-1.6,3.5-2.4,5.4c-1.5,2.3-3.3,4.9-5.3,7.7c-2.3,3.3-4.7,6.6-7.3,9.8s-5.4,6.4-8.3,9.4c-2.9,3-5.9,5.4-9,7.3
			c-4,2.6-6.8,3.2-8.3,1.8c-1.5-1.3-1.7-4.1-0.7-8.5c0.7-4.2,2.2-9.3,4.5-15.4s4.7-12.2,7.3-18.5c2.6-6.3,5.2-12.3,7.8-18
			c2.6-5.7,4.8-10.3,6.4-13.7c3-0.2,6.2-0.5,9.6-1s6.6-1.3,9.7-2.6c3.1-1.2,5.9-2.8,8.4-4.8s4.4-4.6,5.8-7.8
			c0.7-1.9,0.6-3.7-0.4-5.5s-2.7-2.5-5.1-2.2c-1.6,0.2-3.2,0.2-5,0.1s-3.4-0.4-5-0.8c1.8-2.9,3.3-6,4.6-9.4
			c1.3-3.3,1.5-6.8,0.6-10.2c-0.9-3.6-2.5-6.1-4.9-7.5s-5-1.8-7.9-1.6c-2.9,0.3-5.8,1.2-8.8,2.8c-3,1.6-5.5,3.4-7.5,5.5
			c-2.5,2.6-4.9,5.5-7.1,8.6c-2.2,3.1-4.1,6.2-6,9.3c-3.6,0.2-7.2,1.2-10.8,3.2s-6.6,4.1-9.1,6.6c-2.5,2.5-4.1,4.9-5,7.4
			c-0.9,2.5-0.3,4.4,1.5,5.9c1.2,0.9,2.8,1.5,4.6,1.8s3.8,0.5,5.9,0.5c-2.5,5.7-4.8,10.8-6.7,15.4c-0.6,1.5-1.2,2.9-1.8,4.3
			c-0.9-2.5-2.1-4.9-3.6-7.1c-3.4-5.2-8.6-9.2-15.7-12c-6.1-2.4-12.6-3.4-19.5-2.9c-6.9,0.5-13.3,1.9-19.2,4.1
			c-7.3,2.7-11.1,3.2-11.5,1.2s2.1-5,7.4-9.2c8.9-6.8,18.9-12.4,30-17c11.1-4.5,21.7-7.9,31.7-10.2c2.6-0.6,4.8-1.7,6.5-3.2
			c1.8-1.5,3-3.2,3.6-5.1c0.6-1.9,0.6-4-0.1-6c-0.7-2.1-2.2-4-4.5-5.8c-5.3-4-11.3-6.3-17.9-6.8c-6.6-0.5-13.3,0.1-20,1.7
			c-6.7,1.6-13.2,4-19.6,7c-6.4,3.1-12,6.2-16.8,9.4c-4.2,2.8-8.9,6.4-14.2,11c-5.3,4.6-9.8,9.7-13.7,15.3
			c-3.9,5.6-6.4,11.4-7.6,17.4c-1.2,6,0,11.9,3.8,17.5c3.5,5.3,7.8,8.3,12.6,9.1c4.8,0.7,9.9,0.5,15.3-0.8c5.3-1.3,10.7-3,16.1-5.1
			c5.4-2.1,10.5-3.4,15.1-3.9c3.4-0.3,6.2,0.1,8.4,1.3s3.8,2.8,4.7,4.8c1,2,1.3,4.4,1,7.1c-0.3,2.8-1.2,5.5-2.7,8.2
			c-1.9,3.7-4.4,7.3-7.5,10.7c-3.1,3.4-6.5,6.6-10.2,9.6c-3.7,3-7.7,5.7-11.9,8.1c-4.2,2.4-8.3,4.6-12.4,6.5
			c-1.6,0.7-3.8,1.5-6.7,2.5c-2.8,1-5.8,2-9,2.9c-3.1,0.9-6.2,1.5-9.2,1.8c-3,0.3-5.5,0.1-7.6-0.7c-2.3-1-3.3-2.5-3-4.6
			s1.1-4.4,2.5-6.8c1.5-2.4,3.1-4.7,4.8-6.9c1.8-2.2,3.1-3.7,3.9-4.5c1-1,1.5-2.1,1.5-3.3s-0.3-2.3-1-3.3c-0.6-1-1.5-1.7-2.7-2.2
			c-1.1-0.5-2.3-0.6-3.6-0.2c-6.1,1.6-11.7,4.6-16.8,9c-5.1,4.4-8.8,9.3-11,14.9c-2.3,5.6-2.8,11.3-1.7,17.2
			c1.1,5.9,4.8,11.1,11.1,15.6c5.2,3.9,10.9,6.3,17.2,7.3c6.3,1,12.7,1,19.1,0.2c6.5-0.8,12.8-2.3,19.1-4.6c6.3-2.3,12-4.8,17.2-7.5
			c8.1-4.2,15.6-9.2,22.5-14.9c4.3-3.6,8.2-7.6,11.8-11.9c0.4,3.7,1.4,7.3,3,10.7c1.8,3.9,4.9,7.3,9.3,10.2
			c5.4,3.8,11.2,5.6,17.3,5.3c6.1-0.3,11.6-2,16.3-5.1c3.9-2.6,7.3-5.9,10.3-9.7c1-1.3,2-2.7,2.9-4.1c0.1,0.3,0.1,0.7,0.2,1
			c1.4,5.5,4.6,10.3,9.6,14.5c4.5,3.8,9.5,5.8,14.9,6c5.5,0.2,10.5-1,15-3.9c7.3-4.6,13.4-11,18.2-19.2c4.8-8.2,9.2-16.7,13.1-25.5
			c-1.2,5.5-1.7,11-1.7,16.6c0.1,5.6,1.5,10.9,4.2,16c2.7,5.2,6.6,9.2,11.5,11.9c5,2.7,10.3,3.7,15.6,2.7c5.7-1,11.1-4.2,16.1-9.3
			s9.7-11,13.9-17.7c1.7-2.7,3.3-5.4,4.8-8.1c0.1,2,0.2,4,0.5,6c0.8,5.5,2.6,10.6,5.4,15s7.1,7.9,12.8,10.3
			c3.8,1.7,7.4,2.1,10.7,1.3c3.3-0.8,6.5-2.4,9.6-4.8c3-2.4,5.8-5.4,8.4-9.1c2.6-3.7,5-7.5,7.4-11.6c2.3-4,4.5-8.1,6.5-12.1
			c2-4,3.8-7.7,5.5-11c-1.7,3.5-2.7,7.6-3.3,12.3c-0.5,4.7-0.3,9.2,0.6,13.6c0.9,4.4,2.7,8.2,5.2,11.5c2.5,3.3,6,5.2,10.3,5.9
			c3.1,0.5,6.3,0.1,9.3-1.2c3.1-1.2,5.8-2.8,8.2-4.9c6.6-5.7,12.5-12.7,17.8-20.8c0.7,4.3,2.2,8.2,4.5,11.7
			c2.6,3.8,6.8,6.3,12.3,7.6c4.9,1.2,9.6,1.3,13.7,0s8-3.5,11.5-6.5s6.8-6.4,9.7-10.3c2.9-3.9,5.6-7.8,8.1-11.8
			c1.6-2.4,3.6-5.6,6.1-9.3c1.8-2.8,3.6-5.7,5.4-8.5c0.3,5.9,1.7,11.3,4.4,16.1c3.3,6,7.7,10.5,13.1,13.7c5.4,3.2,11.5,4.7,18.1,4.7
			c6.7,0,13.3-2.1,19.8-6.1c4.1-2.5,7.9-5.5,11.3-9c3.4-3.5,6.6-7.3,9.4-11.3c2.8-4,5.4-8,7.7-12.1c2.3-4.1,4.3-8.2,5.9-12.2
			c2-4.8,3.8-10,5.4-15.5c1.6-5.5,2.5-11,2.6-16.4c0.1-6.9-1-12.6-3-17c-2-4.4-4.5-7.9-7.5-10.4s-6-4.3-9-5.3
			c-3.1-1-5.5-1.5-7.3-1.6c-1.6-0.9-3.4-1.6-5.3-2s-3.9-0.5-6-0.4s-4.1,0.3-6,0.7c-2,0.4-3.7,0.8-5,1.4c-4.7,1.7-9.1,4.2-13.2,7.3
			c-4,3.1-7.7,6.6-11.1,10.5c-7.1,8-12.9,17.4-17.3,28.1c-1.6,3.8-2.9,7.7-3.9,11.6c-1,1.3-2.3,3-3.9,5c-3,3.7-6.4,8-10.2,12.7
			s-7.8,9.5-11.9,14.2c-4.1,4.8-7.8,8.6-11.2,11.4c-3.6,3.2-6.2,4.1-7.6,2.7s-1.5-4.5-0.2-9c1.9-6.6,4.6-13,8-19.2s7-12.5,10.7-19.1
			c3-5.1,6.1-10.3,9.2-15.6c3.1-5.3,5.2-10.8,6.2-16.5c0.8-4.8,0-8.5-2.5-11.3c-2.5-2.8-5.5-4.6-9-5.3c-3.5-0.7-7-0.1-10.5,1.7
			c-3.5,1.8-5.8,5.1-7,9.8c-0.5,1.8-1.2,3.8-2.2,5.9c-1,2.1-2.2,4.3-3.5,6.5s-2.7,4.4-4,6.5c-1.3,2.2-2.5,4.2-3.6,6.1
			c-3.2,5.6-6.2,11.2-9.2,16.9c-0.2,0.4-0.4,0.9-0.7,1.3c-0.3,0.4-0.6,0.7-0.8,1.1c-0.6,1-1.2,1.8-1.7,2.5
			c-4.3,6.3-8.2,11.6-11.7,15.9c-3.5,4.3-6.3,7.8-8.3,10.3c-3.3,4.1-5.7,5.8-7.2,5c-1.5-0.8-1.9-2.8-1.1-6
			C705.6,799.8,709.5,787.9,714.4,776z M688.5,761.7c-1.2,4.2-2.5,8.4-3.8,12.6c-2.7,3.8-5.6,8.2-8.9,13.1c-3.2,4.9-6.6,9.7-10,14.6
			c-3.5,4.8-6.9,9.3-10.2,13.3c-3.3,4-6.4,7.2-9.1,9.5c-3.3,3-5.6,4-7.1,3.1s-1.8-3.3-1.1-7c0.9-4.9,2.6-10.3,5-16.4
			c2.4-6,5.3-12,8.7-18.1c3.4-6,7.1-11.7,11.1-17s8.1-9.6,12.3-12.9c3.9-3.1,7.1-5,9.7-5.7c2.5-0.6,5-1.2,7.5-1.7
			C691.1,753.3,689.7,757.5,688.5,761.7z M822.4,805.4c0.1-4.3,1-9.5,2.6-15.5c1.6-6,3.9-11.8,6.8-17.4c2.4-4.7,5.3-9.3,8.5-13.7
			c3.3-4.5,6.9-8.3,11-11.7c3.6-1.7,6.5-1.7,8.8-0.1s3.4,4.2,3.2,7.8c-0.1,2.4-0.5,5.1-1.3,8.2c-0.8,3-1.8,6.1-3.2,9.4
			s-2.8,6.5-4.5,9.7s-3.5,6.3-5.4,9.1c-2.3,3.7-4.7,7.1-7.3,10.3c-2.6,3.2-5.5,6.3-8.7,9.4c-3.8,3.5-6.5,4.5-8.1,3.1
			C823.1,812.5,822.3,809.7,822.4,805.4z"/>
		<path d="M777.5,689.7c-3.7,1.7-6.2,4.7-7.4,8.8c-1.2,4.3-1.2,8-0.2,11.1c1,3.1,2.7,5.6,5,7.4c2.3,1.8,5,3,8,3.5
			c3.1,0.5,6,0.3,8.7-0.7c2.7-1,5.1-2.6,7.1-5s3.2-5.5,3.5-9.6c0.5-5-0.6-9-3.5-11.8c-2.8-2.9-6.2-4.7-10-5.3S781.3,688,777.5,689.7
			z"/>
		<path d="M837.8,851.1c-2.6-2.9-7.1-3.1-10-0.5c-66,59.3-151.3,91.9-240.1,91.9c-72,0-141.4-21.2-200.8-61.3
			c-3.2-2.2-7.6-1.3-9.8,1.9c-2.2,3.2-1.3,7.6,1.9,9.8c61.8,41.7,133.9,63.7,208.7,63.7c92.3,0,180.9-33.9,249.6-95.5
			C840.2,858.4,840.4,854,837.8,851.1z"/>
	</g>
	<g>
		<g>
			<path d="M600.3,175c1.9,0,1.9-3,0-3S598.4,175,600.3,175L600.3,175z"/>
		</g>
	</g>
	<g>
		<g>
			<path d="M597.7,175c1.9,0,1.9-3,0-3S595.7,175,597.7,175L597.7,175z"/>
		</g>
	</g>
	<g>
		<g>
			<path d="M601.7,179.8c7.7,0,7.7-12,0-12C594,167.8,593.9,179.8,601.7,179.8L601.7,179.8z"/>
		</g>
	</g>
</g>
</svg>
